<svg xmlns="http://www.w3.org/2000/svg" xmlns:xlink="http://www.w3.org/1999/xlink" width="416.393" height="429.422" viewBox="0 0 416.393 429.422">
  <defs>
    <clipPath id="clip-path">
      <path id="path22" d="M270.347-423.48A78.744,78.744,0,0,1,191.6-344.736a78.744,78.744,0,0,1-78.741-78.744A78.743,78.743,0,0,1,191.6-502.221a78.743,78.743,0,0,1,78.744,78.741"/>
    </clipPath>
    <clipPath id="clip-path-2">
      <path id="path94" d="M476.524-280.073a78.74,78.74,0,0,1-78.74,78.742,78.743,78.743,0,0,1-78.742-78.742,78.743,78.743,0,0,1,78.742-78.742,78.74,78.74,0,0,1,78.74,78.742"/>
    </clipPath>
    <clipPath id="clip-path-3">
      <path id="path152" d="M342.337-310.8a78.743,78.743,0,0,1-78.744,78.745,78.742,78.742,0,0,1-78.74-78.745,78.741,78.741,0,0,1,78.74-78.741A78.742,78.742,0,0,1,342.337-310.8"/>
    </clipPath>
    <clipPath id="clip-path-4">
      <path id="path206" d="M217.614-280.073a78.742,78.742,0,0,1-78.745,78.742,78.741,78.741,0,0,1-78.738-78.742,78.745,78.745,0,0,1,78.738-78.745,78.746,78.746,0,0,1,78.745,78.745"/>
    </clipPath>
    <clipPath id="clip-path-5">
      <path id="path250" d="M416.646-423.48A78.744,78.744,0,0,1,337.9-344.736a78.746,78.746,0,0,1-78.745-78.744A78.748,78.748,0,0,1,337.9-502.223a78.746,78.746,0,0,1,78.744,78.742"/>
    </clipPath>
    <clipPath id="clip-path-6">
      <path id="path298" d="M342.335-173.316a78.743,78.743,0,0,1-78.742,78.741,78.744,78.744,0,0,1-78.742-78.741,78.745,78.745,0,0,1,78.742-78.744,78.744,78.744,0,0,1,78.742,78.744"/>
    </clipPath>
  </defs>
  <g id="Grupo_3" data-name="Grupo 3" transform="translate(-737.128 -299.867)">
    <g id="Grupo_2" data-name="Grupo 2">
      <g id="Grupo_1" data-name="Grupo 1">
        <path id="path16" d="M191.6-344.736a79.778,79.778,0,0,1-8.3-.432h9.428c-.068.14-.139.285-.205.427-.308,0-.615.005-.923.005m-40.859-13.191q-1.708-.26-3.439-.444a78.666,78.666,0,0,1-34.444-65.109A78.743,78.743,0,0,1,191.6-502.221a78.773,78.773,0,0,1,73.149,49.535,78.5,78.5,0,0,0-5.6,29.207,78.51,78.51,0,0,0,5.6,29.208q-.964,2.412-2.08,4.741a78.382,78.382,0,0,0-45.4,15.055,34.276,34.276,0,0,0-6.785-1.9h0l-.069-.009.232-.139-8.376-4-1.291.347v-6.079c11.24-2.631,18.665-11.159,21.951-23.289a7.4,7.4,0,0,0,1.935.256,7.022,7.022,0,0,0,7.141-6.9,7.024,7.024,0,0,0-7.141-6.9h-.024l.024-.46s2.02-11.371,0-28.071c0,0-2.677-18.488-19.387-21.627a56.248,56.248,0,0,0-12.64-1.42c-8.712,0-19.82,2.124-26.151,11.577a34.819,34.819,0,0,0-6.461,26.288l1.181,13.805a6.976,6.976,0,0,0-5.967,6.805,7.021,7.021,0,0,0,7.139,6.9,7.357,7.357,0,0,0,1.007-.068c3.312,12.032,10.721,20.484,21.9,23.1v5.732l-8.379,4,.151.105a44.249,44.249,0,0,0-6.356,1.531c-4.039,1.184-8.611,3.025-11.816,5.8h0a28.413,28.413,0,0,0-8.347,11.161" transform="translate(676.997 823.863)" fill="#ed3947"/>
        <g id="g20" transform="translate(676.997 823.863)" clip-path="url(#clip-path)">
          <path id="path26" d="M195.289-378.651c-3.243-1.036-5.956-3.071-6.368-6.633a3.546,3.546,0,0,1-.02-.371,35.933,35.933,0,0,0,4.336.256,33.894,33.894,0,0,0,7.745-.857v6.079l-5.693,1.527" fill="#f9a880"/>
          <path id="path28" d="M193.882-378.272l-4.131-1.109h0l-4.261-1.144v-5.732a31.542,31.542,0,0,0,3.409.6,3.547,3.547,0,0,0,.02.371c.412,3.563,3.125,5.6,6.368,6.633l-1.407.379" fill="#ce8b69"/>
          <path id="path30" d="M224.867-409.29a7.4,7.4,0,0,1-1.935-.256,56.309,56.309,0,0,0,1.744-10.495v0l0-.064c.064-.861.112-1.737.143-2.62l.02-.359h.024a7.024,7.024,0,0,1,7.141,6.9,7.022,7.022,0,0,1-7.141,6.9m1.263-10.753a2.5,2.5,0,0,0-.341.019s.168.051.444.16a6.392,6.392,0,0,1,1.068.545,3.07,3.07,0,0,1,1.052,1.111,3.022,3.022,0,0,1,.159.376c.032.135.06.275.1.409l.032.433-.035.449a3.992,3.992,0,0,1-.163.921,6.475,6.475,0,0,1-.3.843,4.138,4.138,0,0,1-.423.72,3.371,3.371,0,0,1-.505.559,4.066,4.066,0,0,1-.524.393c-.175.085-.323.187-.463.239l-.437.18s.059,0,.169,0c.077,0,.181,0,.307-.005a3.815,3.815,0,0,0,.567-.091,3.167,3.167,0,0,0,.684-.287,3.525,3.525,0,0,0,1.339-1.329,4.51,4.51,0,0,0,.439-.968,4.862,4.862,0,0,0,.228-1.073c.008-.192.024-.38.024-.567l-.061-.575c-.052-.187-.1-.373-.167-.551a4.927,4.927,0,0,0-.268-.5,3.087,3.087,0,0,0-1.516-1.164,4,4,0,0,0-1.268-.251h-.135m-.575,2.859a1.255,1.255,0,0,0-1.157,1.337,1.256,1.256,0,0,0,1.157,1.336,1.256,1.256,0,0,0,1.153-1.336,1.254,1.254,0,0,0-1.153-1.337" fill="#f9a880"/>
          <path id="path32" d="M225.958-412.683c-.111,0-.169,0-.169,0l.437-.18c.14-.052.288-.153.463-.239a4.07,4.07,0,0,0,.524-.393,3.371,3.371,0,0,0,.505-.559,4.143,4.143,0,0,0,.423-.72,6.478,6.478,0,0,0,.3-.843,4,4,0,0,0,.163-.921l.035-.449-.032-.433c-.036-.135-.064-.275-.1-.409a3.029,3.029,0,0,0-.159-.376,3.07,3.07,0,0,0-1.052-1.111,6.39,6.39,0,0,0-1.068-.545c-.276-.109-.444-.16-.444-.16a2.492,2.492,0,0,1,.341-.019h.135a4,4,0,0,1,1.268.251,3.088,3.088,0,0,1,1.516,1.164,4.931,4.931,0,0,1,.268.5c.065.177.115.364.167.551l.061.575c0,.187-.016.375-.024.567a4.863,4.863,0,0,1-.228,1.073,4.509,4.509,0,0,1-.439.968,3.524,3.524,0,0,1-1.339,1.329,3.16,3.16,0,0,1-.684.287,3.8,3.8,0,0,1-.567.091c-.125,0-.229.005-.307.005" fill="#ce8b69"/>
          <path id="path34" d="M225.555-414.511a1.256,1.256,0,0,1-1.157-1.336,1.255,1.255,0,0,1,1.157-1.337,1.254,1.254,0,0,1,1.153,1.337,1.256,1.256,0,0,1-1.153,1.336" fill="#ce8b69"/>
          <path id="path36" d="M162.582-409.29a7.021,7.021,0,0,1-7.139-6.9,6.976,6.976,0,0,1,5.967-6.805l.292,3.421.14.14q.1,1.146.232,2.263a.958.958,0,0,0-.175-.016,1.256,1.256,0,0,0-1.159,1.337,1.257,1.257,0,0,0,1.159,1.336,1.021,1.021,0,0,0,.533-.152,51.9,51.9,0,0,0,1.156,5.305,7.357,7.357,0,0,1-1.007.068m-1.267-10.753h-.136a4.008,4.008,0,0,0-1.263.251,3.134,3.134,0,0,0-1.521,1.164c-.1.155-.172.328-.264.5-.063.177-.116.364-.164.551l-.057.575c0,.187.015.375.02.567a5,5,0,0,0,.221,1.073,4.653,4.653,0,0,0,.441.968,3.6,3.6,0,0,0,1.339,1.329,3.077,3.077,0,0,0,.692.287,3.658,3.658,0,0,0,.556.091c.129,0,.235.005.313.005.111,0,.168,0,.168,0l-.435-.18c-.139-.052-.289-.153-.467-.239a4.066,4.066,0,0,1-.524-.393,3.482,3.482,0,0,1-.5-.559,3.823,3.823,0,0,1-.42-.72,5.361,5.361,0,0,1-.308-.843,4.3,4.3,0,0,1-.159-.921l-.033-.449.031-.433c.035-.135.064-.275.092-.409.059-.125.092-.26.156-.376a3.124,3.124,0,0,1,1.06-1.111,6.094,6.094,0,0,1,1.067-.545c.275-.109.443-.16.443-.16a2.548,2.548,0,0,0-.345-.019" fill="#f9a880"/>
          <path id="path38" d="M161.493-412.683c-.079,0-.184,0-.313-.005a3.661,3.661,0,0,1-.556-.091,3.082,3.082,0,0,1-.692-.287,3.6,3.6,0,0,1-1.339-1.329,4.653,4.653,0,0,1-.441-.968,5,5,0,0,1-.221-1.073c-.005-.192-.02-.38-.02-.567l.057-.575c.048-.187.1-.373.164-.551.092-.171.167-.344.264-.5a3.134,3.134,0,0,1,1.521-1.164,4.006,4.006,0,0,1,1.263-.251h.136a2.552,2.552,0,0,1,.345.019s-.168.051-.443.16a6.1,6.1,0,0,0-1.067.545,3.123,3.123,0,0,0-1.06,1.111c-.064.116-.1.251-.156.376-.028.135-.057.275-.092.409l-.031.433.033.449a4.3,4.3,0,0,0,.159.921,5.359,5.359,0,0,0,.308.843,3.82,3.82,0,0,0,.42.72,3.481,3.481,0,0,0,.5.559,4.067,4.067,0,0,0,.524.393c.177.085.328.187.467.239l.435.18s-.057,0-.168,0" fill="#ce8b69"/>
          <path id="path40" d="M161.9-414.511a1.257,1.257,0,0,1-1.159-1.336,1.256,1.256,0,0,1,1.159-1.337.958.958,0,0,1,.175.016c.1.847.223,1.684.359,2.505a1.021,1.021,0,0,1-.533.152" fill="#ce8b69"/>
          <path id="path42" d="M193.237-385.4a35.933,35.933,0,0,1-4.336-.256,31.534,31.534,0,0,1-3.409-.6h0c-11.181-2.617-18.591-11.069-21.9-23.1a51.886,51.886,0,0,1-1.156-5.305c-.136-.821-.256-1.659-.359-2.505q-.134-1.118-.232-2.263l3.061,3.067.619-25.8s.211-13.4,14.439-13.4a34.192,34.192,0,0,0,14.536,3.04,37.444,37.444,0,0,0,12.016-1.988,13.1,13.1,0,0,1,1.844-.113c3.711,0,11.827,1.232,13.025,11.831l-.109,26.947,3.4-4.193a56.312,56.312,0,0,1-1.744,10.495c-3.285,12.131-10.711,20.659-21.951,23.289a33.9,33.9,0,0,1-7.745.857m31.444-34.708.143-2.62c-.031.883-.079,1.759-.143,2.62" fill="#f9a880"/>
          <path id="path44" d="M198.114-356.088l-1.193-9.743,1.444-5.992-.881,3.74,9.312-5.936-8.681,17.931m-9.635-.945-7.137-16.539,7.632,5.321-.161-.679.477,1.989a.067.067,0,0,0-.017.008l.267,1.1.016-.008v.008l-1.077,8.8m1.077-8.8a.078.078,0,0,1,.009-.013l.008,0-.017.017m9.068-7.072.005-.024.017.017-.023.007" fill="#fff"/>
          <path id="path46" d="M193.2-346.107l-4.716-10.927,1.077-8.8v-.008a.026.026,0,0,1,.011-.005.075.075,0,0,0-.009.013h0l.017-.017a7.946,7.946,0,0,1,3.6-.86,8.2,8.2,0,0,1,3.723.877,4.607,4.607,0,0,0-3.972-1.907,9.723,9.723,0,0,0-3.637.8l-.477-1.989-.689-2.881,5.759-6.356,4.748,5.24-.005.024-.007,0-.253,1.077-1.444,5.992,1.193,9.743-3.748,7.743q-.6,1.108-1.171,2.239" fill="#ed3947"/>
          <path id="path48" d="M189.54-365.831l-.267-1.1a.067.067,0,0,1,.017-.008l.265,1.1-.016.008m.027-.013a1.458,1.458,0,0,1,.251-.253l-.243.249-.008,0" fill="#bdbcbd"/>
          <path id="path50" d="M196.9-365.831a8.2,8.2,0,0,0-3.723-.877,7.947,7.947,0,0,0-3.6.86l.243-.249a1.461,1.461,0,0,0-.251.253.027.027,0,0,0-.011.005l-.265-1.1a9.723,9.723,0,0,1,3.637-.8,4.607,4.607,0,0,1,3.972,1.907" fill="#b02932"/>
          <path id="path52" d="M192.732-345.168H183.3l-.133-.015a78.309,78.309,0,0,0-32.425-12.744,28.413,28.413,0,0,1,8.347-11.161c3.205-2.772,7.777-4.613,11.816-5.8-2.4.743-4.217,1.447-4.217,1.447l15.681,12.951-3.155,5.417,13.953,9.015c-.149.3-.295.591-.439.888m1.635-3.177,3.748-7.743,8.681-17.931h0l-12.407,25.633c-.008.013-.016.028-.023.041" fill="#173751"/>
          <path id="path54" d="M193.17-346.056l-13.953-9.015,3.155-5.417L166.69-373.439s1.815-.7,4.217-1.447h0a44.248,44.248,0,0,1,6.356-1.531l4.079,2.844,7.137,16.539,4.716,10.927c-.009.017-.017.033-.025.051" fill="#0a1a26"/>
          <path id="path56" d="M194.389-348.387,206.8-374.02l3.691-2.353a34.282,34.282,0,0,1,6.785,1.9,79.1,79.1,0,0,0-22.883,26.089m15.929-27.937.1-.059.069.009-.168.049" fill="#0a1a26"/>
          <path id="path58" d="M188.974-368.251l-7.632-5.321-.247-.571,5.932,3.541,1.093-1.207.692,2.879.161.679" fill="#a7a5a6"/>
          <path id="path60" d="M188.813-368.93l-.692-2.879,0,0,.689,2.881" fill="#9b242b"/>
          <path id="path62" d="M177.264-376.416l-.151-.105.171.1-.02,0" fill="#9b242b"/>
          <path id="path64" d="M181.342-373.572l-4.079-2.844.02,0,3.812,2.276.247.571" fill="#06111a"/>
          <path id="path66" d="M197.484-368.083l.881-3.74.26-1.08.023-.007,2.092,2.308,6.192-3.7-.136.281-9.312,5.936" fill="#a7a5a6"/>
          <path id="path68" d="M198.365-371.823l.253-1.077.007,0-.26,1.08" fill="#9b242b"/>
          <path id="path70" d="M206.8-374.019l.136-.281h0l-.136.28h0" fill="#0e2334"/>
          <path id="path72" d="M210.486-376.374h0" fill="#9b242b"/>
          <path id="path74" d="M206.8-374.02l.136-.28,3.387-2.024.168-.049h0L206.8-374.02" fill="#06111a"/>
          <path id="path76" d="M187.028-370.6l-5.932-3.541-3.812-2.276-.171-.1,7.483,4.468a4.447,4.447,0,0,1,.773-5.528,6.151,6.151,0,0,1,4.148-1.8c.077,0,.156,0,.235,0l4.131,1.109-.079.02.079.085-5.759,6.356,0,0-1.093,1.207m-9.915-5.92h0l8.379-4-8.379,4" fill="#fff"/>
          <path id="path78" d="M189.753-379.38h0l-4.26-1.143,4.261,1.144" fill="#ab7356"/>
          <path id="path80" d="M184.6-372.054l-7.483-4.468,8.379-4,4.26,1.143c-.079,0-.157,0-.235,0a6.151,6.151,0,0,0-4.148,1.8,4.447,4.447,0,0,0-.773,5.528" fill="#d3d2d2"/>
          <path id="path82" d="M200.74-370.6l-2.092-2.308-.017-.017-4.748-5.24-.079-.085.079-.02,1.407-.379,5.693-1.527,1.291-.347,8.376,4-8.376-4-4.26,1.144c.08,0,.159-.005.237-.005a6.144,6.144,0,0,1,4.145,1.8,4.461,4.461,0,0,1,.775,5.528l7.479-4.468-.232.139-.1.059-3.387,2.024h0l-6.192,3.7" fill="#fff"/>
          <path id="path84" d="M203.17-372.054a4.461,4.461,0,0,0-.775-5.528,6.144,6.144,0,0,0-4.145-1.8c-.079,0-.157,0-.237.005l4.26-1.144,8.376,4-7.479,4.468" fill="#d3d2d2"/>
          <path id="path86" d="M221.273-415.847l.109-26.947c-1.2-10.6-9.315-11.831-13.025-11.831a13.093,13.093,0,0,0-1.844.113,37.445,37.445,0,0,1-12.016,1.988,34.192,34.192,0,0,1-14.536-3.04c-14.228,0-14.439,13.4-14.439,13.4l-.619,25.8-3.061-3.067-.14-.14-.292-3.421L160.229-436.8a34.819,34.819,0,0,1,6.461-26.288c6.331-9.453,17.439-11.577,26.151-11.577a56.25,56.25,0,0,1,12.64,1.42c16.709,3.139,19.387,21.627,19.387,21.627,2.02,16.7,0,28.071,0,28.071l-.024.46-.02.359-.143,2.62,0,.064v0l-3.4,4.193" fill="#8d4f09"/>
        </g>
        <path id="path88" d="M440.38-213.835a28.362,28.362,0,0,0-8.455-11.416h0c-5.043-4.365-12.629-6.247-16.552-6.964v-.007l-5.035-.888v0c-2.349-.447-4.121-.713-4.809-.811v-7.891h0v-.611c11.24-2.631,18.665-11.159,21.951-23.291a7.349,7.349,0,0,0,1.936.257,7.027,7.027,0,0,0,7.14-6.9,7.026,7.026,0,0,0-7.14-6.9h-.033c.005-.167.009-.332.013-.5l.645-10.837c2.836-21.091-2.311-26.309-2.311-26.309a22.945,22.945,0,0,0-7.012-7.339,13.888,13.888,0,0,0-.22-2.152,22.874,22.874,0,0,0-1.673-5.515,22.918,22.918,0,0,0-4.647-6.832,22.568,22.568,0,0,0-3.672-2.977,24.538,24.538,0,0,0-4.347-2.223,21.162,21.162,0,0,0-2.323-.756,21.294,21.294,0,0,0-2.351-.555,18.02,18.02,0,0,0-2.34-.345c-.773-.107-1.54-.125-2.292-.157-.431-.025-.856-.041-1.276-.041-.315,0-.628.009-.937.029-.721.037-1.427.033-2.107.123l-1.981.205c-.636.091-1.244.215-1.828.315a30.4,30.4,0,0,0-3.156.7,23.629,23.629,0,0,0-2.387.695c-1.307.433-2.043.7-2.043.7h0s4.495,2.091,6.435,4.184c0,0-.243-.017-.677-.017-2.852,0-13.988.724-19.3,11.671a40.9,40.9,0,0,1,8.412-1.661,22.307,22.307,0,0,0-1.923,1.223,13.6,13.6,0,0,0-1.439.845,18.035,18.035,0,0,0-1.576,1.163,18.45,18.45,0,0,0-1.889,1.721,18.019,18.019,0,0,0-1.98,2.317,14.857,14.857,0,0,0-.951,1.384,11.819,11.819,0,0,0-.863,1.537,13.467,13.467,0,0,0-.756,1.671l-.348.873c-.095.3-.169.609-.256.916a12.789,12.789,0,0,0-.42,1.909,12.96,12.96,0,0,0-.225,1.925l-.025.912-.007.228,0,.113,0,.167,0,.056.025.455q.054.908.107,1.805c.061,1.2.187,2.372.272,3.509.2,2.276.429,4.4.676,6.213.456,3.543.973,5.924,1,6.041l.749,12.559c0,.036,0,.072,0,.109a6.984,6.984,0,0,0-6.2,6.837,7.023,7.023,0,0,0,7.14,6.9,7.419,7.419,0,0,0,1.009-.069c3.311,12.035,10.716,20.487,21.9,23.1v8.5c-.721.1-2.647.392-5.18.884l-3.493.616c-3.405.539-12.139,2.333-17.727,7.168h0a28.39,28.39,0,0,0-8.452,11.416,78.9,78.9,0,0,1-33.048-44.3,78.455,78.455,0,0,0,20.2-52.661,78.826,78.826,0,0,0-3.1-21.937A79.134,79.134,0,0,1,356-346.827q3.436-.808,6.751-1.911a78.438,78.438,0,0,0,16.935-7.987,78.975,78.975,0,0,1,18.1-2.091,78.74,78.74,0,0,1,78.74,78.743,78.679,78.679,0,0,1-36.144,66.237" transform="translate(676.997 823.863)" fill="#6ea0ef"/>
        <g id="g92" transform="translate(676.997 823.863)" clip-path="url(#clip-path-2)">
          <path id="path98" d="M405.53-233.918l-.312-.044H390.351l-.312.043v-8.5h0v7.584a7.7,7.7,0,0,1,.889-1.077,10.523,10.523,0,0,1,6.767-3.051c2.211-.168,5.991.307,7.168-2a2.55,2.55,0,0,1,.667-.848v7.891" fill="#f9a880"/>
          <path id="path100" d="M390.039-234.834v-7.584a33.973,33.973,0,0,0,7.745.856,33.9,33.9,0,0,0,7.745-.857v.611a2.549,2.549,0,0,0-.667.848c-1.177,2.305-4.957,1.831-7.168,2a10.523,10.523,0,0,0-6.767,3.051,7.7,7.7,0,0,0-.889,1.077" fill="#b87c5d"/>
          <path id="path102" d="M429.416-265.453a7.35,7.35,0,0,1-1.936-.257,52.189,52.189,0,0,0,1.2-5.691l.225-.063.195-3.279c.144-1.467.239-2.972.285-4.507h.033a7.026,7.026,0,0,1,7.14,6.9,7.027,7.027,0,0,1-7.14,6.9m1.257-10.753a2.633,2.633,0,0,0-.339.017s.171.051.445.161a6.458,6.458,0,0,1,1.064.544,3.122,3.122,0,0,1,1.061,1.109c.065.116.1.253.156.38.028.133.057.272.091.408l.036.433-.037.449a4.081,4.081,0,0,1-.161.919,5.79,5.79,0,0,1-.3.844,4.511,4.511,0,0,1-.421.723,3.661,3.661,0,0,1-.505.557,3.992,3.992,0,0,1-.52.392c-.181.085-.331.187-.465.24-.277.115-.44.18-.44.18h.163c.08,0,.188,0,.321,0a3.97,3.97,0,0,0,.555-.093,2.979,2.979,0,0,0,.689-.283,3.56,3.56,0,0,0,1.34-1.331,4.666,4.666,0,0,0,.44-.969,5.1,5.1,0,0,0,.228-1.073c0-.192.02-.38.017-.568l-.057-.575c-.047-.185-.1-.371-.164-.548a5.46,5.46,0,0,0-.267-.5,3.125,3.125,0,0,0-1.519-1.165,3.934,3.934,0,0,0-1.267-.251h-.141m-.571,2.859a1.26,1.26,0,0,0-1.16,1.336,1.258,1.258,0,0,0,1.16,1.335,1.255,1.255,0,0,0,1.155-1.335,1.257,1.257,0,0,0-1.155-1.336" fill="#f9a880"/>
          <path id="path104" d="M430.5-268.847h-.163s.163-.065.44-.18c.135-.053.284-.155.465-.24a3.993,3.993,0,0,0,.52-.392,3.662,3.662,0,0,0,.505-.557,4.508,4.508,0,0,0,.421-.723,5.789,5.789,0,0,0,.3-.844,4.076,4.076,0,0,0,.161-.919l.037-.449-.036-.433c-.033-.136-.063-.275-.091-.408-.057-.127-.091-.264-.156-.38a3.122,3.122,0,0,0-1.061-1.109,6.458,6.458,0,0,0-1.064-.544c-.275-.111-.445-.161-.445-.161a2.637,2.637,0,0,1,.339-.017h.141a3.934,3.934,0,0,1,1.267.251,3.125,3.125,0,0,1,1.519,1.165,5.463,5.463,0,0,1,.267.5c.063.177.117.363.164.548l.057.575c0,.188-.013.376-.017.568a5.1,5.1,0,0,1-.228,1.073,4.667,4.667,0,0,1-.44.969,3.56,3.56,0,0,1-1.34,1.331,2.978,2.978,0,0,1-.689.283,3.961,3.961,0,0,1-.555.093c-.133,0-.241,0-.321,0" fill="#ce8b69"/>
          <path id="path106" d="M430.1-270.677a1.258,1.258,0,0,1-1.16-1.335,1.26,1.26,0,0,1,1.16-1.336,1.257,1.257,0,0,1,1.155,1.336,1.255,1.255,0,0,1-1.155,1.335" fill="#ce8b69"/>
          <path id="path108" d="M367.13-265.453a7.023,7.023,0,0,1-7.14-6.9,6.984,6.984,0,0,1,6.2-6.837q.094,3.016.437,5.857a1.021,1.021,0,0,0-.183-.016,1.256,1.256,0,0,0-1.153,1.336,1.254,1.254,0,0,0,1.153,1.335,1.042,1.042,0,0,0,.54-.153,51.593,51.593,0,0,0,1.157,5.308,7.415,7.415,0,0,1-1.009.069m-1.259-10.753h-.141a3.914,3.914,0,0,0-1.265.251,3.119,3.119,0,0,0-1.521,1.165c-.1.151-.175.328-.265.5-.064.177-.116.363-.165.548l-.057.575c0,.188.015.376.024.568a5,5,0,0,0,.22,1.073,4.965,4.965,0,0,0,.441.969,3.591,3.591,0,0,0,1.341,1.331,3.043,3.043,0,0,0,.688.283,4.024,4.024,0,0,0,.56.093c.131,0,.237,0,.316,0h.161l-.44-.18c-.135-.053-.284-.155-.464-.24a4.5,4.5,0,0,1-.52-.392,3.958,3.958,0,0,1-.5-.557,4.226,4.226,0,0,1-.421-.723,5.638,5.638,0,0,1-.3-.844,4.313,4.313,0,0,1-.163-.919l-.033-.449.029-.433c.04-.136.068-.275.1-.408.055-.127.093-.264.156-.38a3.125,3.125,0,0,1,1.063-1.109,6.247,6.247,0,0,1,1.061-.544c.277-.111.444-.161.444-.161a2.588,2.588,0,0,0-.336-.017" fill="#f9a880"/>
          <path id="path110" d="M366.046-268.847c-.079,0-.185,0-.316,0a4.028,4.028,0,0,1-.56-.093,3.042,3.042,0,0,1-.688-.283,3.591,3.591,0,0,1-1.341-1.331,4.965,4.965,0,0,1-.441-.969,5,5,0,0,1-.22-1.073c-.009-.192-.024-.38-.024-.568l.057-.575c.049-.185.1-.371.165-.548.091-.169.164-.347.265-.5a3.119,3.119,0,0,1,1.521-1.165,3.913,3.913,0,0,1,1.265-.251h.141a2.584,2.584,0,0,1,.336.017s-.167.051-.444.161a6.246,6.246,0,0,0-1.061.544,3.125,3.125,0,0,0-1.063,1.109c-.063.116-.1.253-.156.38-.028.133-.056.272-.1.408l-.029.433.033.449a4.315,4.315,0,0,0,.163.919,5.636,5.636,0,0,0,.3.844,4.233,4.233,0,0,0,.421.723,3.956,3.956,0,0,0,.5.557,4.5,4.5,0,0,0,.52.392c.18.085.329.187.464.24l.44.18h-.161" fill="#ce8b69"/>
          <path id="path112" d="M366.442-270.677a1.254,1.254,0,0,1-1.153-1.335,1.256,1.256,0,0,1,1.153-1.336,1.022,1.022,0,0,1,.183.016q.154,1.27.357,2.5a1.042,1.042,0,0,1-.54.153" fill="#ce8b69"/>
          <path id="path114" d="M397.784-241.562a33.971,33.971,0,0,1-7.745-.856h0c-11.184-2.617-18.589-11.069-21.9-23.1a51.593,51.593,0,0,1-1.157-5.308q-.2-1.23-.357-2.5-.344-2.838-.437-5.857c0-.037,0-.073,0-.109l.243,4.087,2.8.789c-2.459-30.864,13.8-37.928,13.8-37.928l.06-.256.159.133a46.187,46.187,0,0,1,15.423-2.505,45.938,45.938,0,0,1,14.929,2.441v.005h.017q1.58.544,3.183,1.235c4.331,2.767,11.3,11.715,9.309,40.619l2.571-.724a52.189,52.189,0,0,1-1.2,5.691c-3.285,12.132-10.711,20.66-21.951,23.291h0a33.9,33.9,0,0,1-7.745.857m31.313-33.18.3-5.007c0,.168-.008.333-.013.5-.047,1.535-.141,3.04-.285,4.507" fill="#f9a880"/>
          <path id="path116" d="M398.631-218.462h-.413c-4.7,0-8.184-1.26-10.329-3.727-3.431-3.952-2.6-9.948-2.585-10.047a2.43,2.43,0,0,0-.019-.875l-.425.075c2.533-.492,4.459-.78,5.18-.884l.312-.043h14.867l.312.044c.688.1,2.46.364,4.809.811.2,4.733-.9,8.943-3.244,11.317-3.192,3.231-7.881,3.328-8.464,3.328" fill="#f9a880"/>
          <path id="path118" d="M397.784-201.33a78.377,78.377,0,0,1-42.6-12.505,28.391,28.391,0,0,1,8.452-11.416h0c5.588-4.835,14.321-6.629,17.727-7.168l-1.113.2c-.189,2.195-.3,8.516,3.813,13.288,3.147,3.645,7.916,5.493,14.181,5.493h.392c1.364,0,7.484-.263,11.98-4.768,3.311-3.316,4.909-8.025,4.755-14.005,3.923.717,11.509,2.6,16.552,6.964h0a28.362,28.362,0,0,1,8.455,11.416,78.373,78.373,0,0,1-42.6,12.505" fill="#2e6a87"/>
          <path id="path120" d="M398.639-213.442h-.392c-6.265,0-11.035-1.848-14.181-5.493-4.116-4.772-4-11.093-3.813-13.288l1.113-.2,3.493-.616.425-.075a2.43,2.43,0,0,1,.019.875c-.012.1-.845,6.095,2.585,10.047,2.145,2.467,5.631,3.727,10.329,3.727h.413c.583,0,5.272-.1,8.464-3.328,2.348-2.375,3.44-6.584,3.244-11.317v0l5.035.888v.007c.155,5.98-1.444,10.689-4.755,14.005-4.5,4.505-10.616,4.768-11.98,4.768" fill="#19384b"/>
          <path id="path122" d="M369.223-274.422l-2.8-.789-.243-4.087-.749-12.559a.01.01,0,0,1,0,0s.307-2.451.433-6.112c.076-1.831.109-3.965.093-6.249-.02-1.141-.005-2.323-.056-3.52-.02-.6-.043-1.2-.063-1.808l-.016-.453v-.023l0-.1.012-.228.049-.911a10.506,10.506,0,0,1,.163-1.7,10.285,10.285,0,0,1,.321-1.627,15.07,15.07,0,0,1,.455-1.607,11.527,11.527,0,0,1,.565-1.54c.188-.509.432-.984.661-1.456a13.363,13.363,0,0,1,.715-1.368c.236-.447.5-.86.759-1.261s.5-.8.76-1.16a36.177,36.177,0,0,1,3.825-4.665l-.029.015a22.3,22.3,0,0,1,1.923-1.223c.911-.08,1.856-.128,2.816-.128a22.057,22.057,0,0,1,5.672.677s-11.181,7.372-1.413,15.687l-.06.256s-16.261,7.064-13.8,37.928" fill="#6d1a0b"/>
          <path id="path124" d="M365.436-291.853a.01.01,0,0,0,0,0c-.025-.117-.543-2.5-1-6.041-.247-1.816-.48-3.937-.676-6.213-.085-1.137-.211-2.312-.272-3.509q-.052-.9-.107-1.805l-.025-.455,0-.056,0-.167,0-.113.007-.228.025-.912a12.959,12.959,0,0,1,.225-1.925,12.8,12.8,0,0,1,.42-1.909c.087-.307.161-.616.256-.916l.348-.873a13.482,13.482,0,0,1,.756-1.671,11.815,11.815,0,0,1,.863-1.537,14.857,14.857,0,0,1,.951-1.384,18.014,18.014,0,0,1,1.98-2.317,18.45,18.45,0,0,1,1.889-1.721,18.031,18.031,0,0,1,1.576-1.163,13.621,13.621,0,0,1,1.439-.845l.029-.015a36.169,36.169,0,0,0-3.825,4.665c-.261.36-.516.748-.76,1.16s-.523.815-.759,1.261a13.373,13.373,0,0,0-.715,1.368c-.229.472-.473.947-.661,1.456a11.521,11.521,0,0,0-.565,1.54,15.071,15.071,0,0,0-.455,1.607,10.285,10.285,0,0,0-.321,1.627,10.506,10.506,0,0,0-.163,1.7l-.049.911-.012.228,0,.1V-310l.016.453c.02.607.043,1.211.063,1.808.051,1.2.036,2.379.056,3.52.016,2.284-.017,4.419-.093,6.249-.127,3.661-.433,6.112-.433,6.112" fill="#4a1006"/>
          <path id="path126" d="M426.107-270.677c1.991-28.9-4.979-37.852-9.309-40.619.84.364,1.681.759,2.525,1.191l1.4-14.123h0v-.007a22.946,22.946,0,0,1,7.012,7.339s5.147,5.219,2.311,26.309l-.645,10.837-.3,5.007-.195,3.279-.225.063-2.571.724M413.615-312.53H413.6v-.005l.019.007" fill="#6d1a0b"/>
          <path id="path128" d="M419.323-310.1c-.844-.432-1.685-.827-2.525-1.191q-1.6-.694-3.183-1.235l-.019-.007a45.938,45.938,0,0,0-14.929-2.441,46.187,46.187,0,0,0-15.423,2.505l-.159-.133c-9.768-8.315,1.413-15.687,1.413-15.687a22.059,22.059,0,0,0-5.672-.677c-.96,0-1.905.048-2.816.128a40.9,40.9,0,0,0-8.412,1.661c5.311-10.947,16.447-11.671,19.3-11.671.435,0,.677.017.677.017-1.94-2.093-6.435-4.184-6.435-4.184h0s.788-.064,2.147-.215c.676-.088,1.5-.168,2.445-.236s2-.179,3.157-.215c1.155-.076,2.4-.077,3.716-.08.095,0,.189-.005.284-.005.567,0,1.143.055,1.731.079.685.032,1.384.057,2.088.149a34.37,34.37,0,0,1,4.293.672,19.44,19.44,0,0,1,2.148.549,19.965,19.965,0,0,1,2.1.727,22.067,22.067,0,0,1,3.963,1.931,25.171,25.171,0,0,1,3.445,2.529,29.266,29.266,0,0,1,2.785,2.913,32.351,32.351,0,0,1,2.109,2.984,31.939,31.939,0,0,1,2.465,4.98,20.472,20.472,0,0,1,.7,2.028l-1.4,14.123" fill="#6d1a0b"/>
          <path id="path130" d="M420.719-324.227h0a20.468,20.468,0,0,0-.7-2.028,31.939,31.939,0,0,0-2.465-4.98,32.322,32.322,0,0,0-2.109-2.984,29.259,29.259,0,0,0-2.785-2.913,25.162,25.162,0,0,0-3.445-2.529,22.062,22.062,0,0,0-3.963-1.931,19.968,19.968,0,0,0-2.1-.727,19.435,19.435,0,0,0-2.148-.549,34.365,34.365,0,0,0-4.293-.672c-.7-.092-1.4-.117-2.088-.149-.588-.024-1.164-.079-1.731-.079-.095,0-.189,0-.284.005-1.313,0-2.561,0-3.716.08-1.156.036-2.215.139-3.157.215s-1.769.148-2.445.236c-1.359.151-2.147.215-2.147.215h0s.736-.269,2.043-.7a23.622,23.622,0,0,1,2.387-.695,30.419,30.419,0,0,1,3.156-.7c.584-.1,1.192-.224,1.828-.315.64-.067,1.3-.136,1.981-.205.68-.089,1.385-.085,2.107-.123.309-.02.623-.029.937-.029.42,0,.845.016,1.276.041.752.032,1.519.051,2.292.157a18.02,18.02,0,0,1,2.34.345,21.3,21.3,0,0,1,2.351.555,21.167,21.167,0,0,1,2.323.756,24.54,24.54,0,0,1,4.347,2.223,22.565,22.565,0,0,1,3.672,2.977,22.917,22.917,0,0,1,4.647,6.832,22.873,22.873,0,0,1,1.673,5.515,13.892,13.892,0,0,1,.22,2.152v.007" fill="#4a1006"/>
        </g>
        <path id="path132" d="M221-244.555a78.936,78.936,0,0,1-8.853-6.627,78.517,78.517,0,0,0,5.469-28.891,78.562,78.562,0,0,0-27.293-59.612q1.016-2.574,2.205-5.057,3.732-.042,7.379-.427h0a78.285,78.285,0,0,0,35.731-13.02h0a79.091,79.091,0,0,0,27.037-31.343c.307,0,.612-.005.92-.005q1.642,0,3.268.067a78.9,78.9,0,0,0,11.867,17.943q-.75-.184-1.517-.333a51.332,51.332,0,0,0-6.24-.849q-1.728-.108-3.451-.108-1.426,0-2.836.073c-.52.028-1.039.06-1.556.111l-.84.1-.751.159c-1,.231-1.991.375-2.941.675a32.643,32.643,0,0,0-5.391,1.915,27.058,27.058,0,0,0-4.476,2.493c-.656.444-1.257.916-1.823,1.36-.535.492-1.072.912-1.512,1.384a19.131,19.131,0,0,0-2.16,2.508,11.661,11.661,0,0,0-1.417,2.477c-.684.388-1.321.8-1.919,1.22a13.351,13.351,0,0,0-1.451.827,17.261,17.261,0,0,0-1.595,1.148,17.854,17.854,0,0,0-1.911,1.708,18.049,18.049,0,0,0-2,2.312,15.394,15.394,0,0,0-.961,1.385,11.535,11.535,0,0,0-.873,1.541,13.725,13.725,0,0,0-.767,1.677l-.352.876c-.1.3-.171.613-.257.923a12.693,12.693,0,0,0-.427,1.923,13.274,13.274,0,0,0-.229,1.936l-.025.912-.007.228,0,.115,0,.176,0,.057.027.453q.054.908.108,1.807c.063,1.2.193,2.371.284,3.509.2,2.275.451,4.395.713,6.211.479,3.5,1.029,5.863,1.069,6.032l.748,12.513c0,.055,0,.108.005.163a6.986,6.986,0,0,0-6.2,6.839,7.022,7.022,0,0,0,7.139,6.895,7.622,7.622,0,0,0,1.009-.068c3.312,12.032,10.72,20.487,21.9,23.1v8.5c-.908.131-3.715.553-7.245,1.3-.212.023-12.155,1.307-19.153,7.364h0A28.365,28.365,0,0,0,221-244.555m85.193,0a28.367,28.367,0,0,0-8.451-11.416h0c-6.955-6.016-18.733-7.313-19.1-7.352-3.553-.756-6.384-1.183-7.3-1.313v-7.892h0v-.611c11.241-2.632,18.667-11.159,21.952-23.292a7.388,7.388,0,0,0,1.935.256,7.019,7.019,0,0,0,7.139-6.895,7.02,7.02,0,0,0-7.139-6.9h-.033c.005-.187.011-.371.015-.557l.645-10.781c1.1-8.215.995-14.02.453-18.049,3.252,2.955,4.491,8.38,4.491,8.38,1.4-14.1-1.9-22.779-2.633-24.507a78.363,78.363,0,0,0,15.793,7.041,78.526,78.526,0,0,0,20.676,3.64,78.165,78.165,0,0,1,4.607,12.071,78.449,78.449,0,0,0-20.2,52.66,78.786,78.786,0,0,0,3.1,21.939,79.116,79.116,0,0,1-15.948,13.577" transform="translate(676.997 823.863)" fill="#121dff"/>
        <path id="path134" d="M192.526-344.742c.067-.141.137-.287.205-.427H199.9q-3.642.38-7.379.427m43.109-13.447a27.936,27.936,0,0,0-8.256-10.9h0a15.229,15.229,0,0,0-1.773-1.307,32.574,32.574,0,0,0-5.98-2.911l.163-.133s-1.013-.467-2.517-1.037a78.382,78.382,0,0,1,45.4-15.055,79.091,79.091,0,0,1-27.037,31.343" transform="translate(676.997 823.863)" fill="#0008b2"/>
        <path id="path136" d="M227.379-369.088h0a16.531,16.531,0,0,0-1.773-1.307,15.227,15.227,0,0,1,1.773,1.307h0" transform="translate(676.997 823.863)" fill="#f57723"/>
        <path id="path138" d="M193.237-346.012h0l-.041-.095q.568-1.13,1.171-2.239l-1.129,2.333" transform="translate(676.997 823.863)" fill="#ec3226"/>
        <path id="path140" d="M199.9-345.168h-7.173c.144-.3.289-.592.439-.888l.067.044,1.129-2.333c.007-.013.015-.028.023-.041l-1.149,2.375,14.017-9.059-3.155-5.417,15.524-12.817a27.094,27.094,0,0,1,7.753,4.217,27.936,27.936,0,0,1,8.256,10.9,78.285,78.285,0,0,1-35.731,13.02" transform="translate(676.997 823.863)" fill="#1c1d22"/>
        <path id="path142" d="M193.237-346.012l-.067-.044c.008-.017.016-.033.025-.051l.041.095" transform="translate(676.997 823.863)" fill="#0c1613"/>
        <path id="path144" d="M193.24-346.012l1.149-2.375a79.1,79.1,0,0,1,22.883-26.089c1.5.571,2.517,1.037,2.517,1.037l-.163.133L204.1-360.488l3.155,5.417-14.017,9.059" transform="translate(676.997 823.863)" fill="#0c1613"/>
        <path id="path146" d="M322.139-258.134a78.785,78.785,0,0,1-3.1-21.939,78.449,78.449,0,0,1,20.2-52.66,78.825,78.825,0,0,1,3.1,21.937,78.455,78.455,0,0,1-20.2,52.661" transform="translate(676.997 823.863)" fill="#0008b2"/>
        <g id="g150" transform="translate(676.997 823.863)" clip-path="url(#clip-path-3)">
          <path id="path156" d="M271.341-264.638l-.315-.044H256.159l-.311.043v-8.5h0v7.585a8.393,8.393,0,0,1,.885-1.079,10.557,10.557,0,0,1,6.771-3.052c2.208-.164,5.991.309,7.168-2a2.577,2.577,0,0,1,.668-.847v7.892" fill="#f9a880"/>
          <path id="path158" d="M255.849-265.555v-7.585a33.886,33.886,0,0,0,7.744.857,33.911,33.911,0,0,0,7.748-.857v.611a2.577,2.577,0,0,0-.668.847c-1.177,2.307-4.96,1.833-7.168,2a10.557,10.557,0,0,0-6.771,3.052,8.394,8.394,0,0,0-.885,1.079" fill="#b87c5d"/>
          <path id="path160" d="M295.227-296.177a7.388,7.388,0,0,1-1.935-.256,52.619,52.619,0,0,0,1.2-5.689l.221-.063.192-3.2q.222-2.24.292-4.588h.033a7.02,7.02,0,0,1,7.139,6.9,7.019,7.019,0,0,1-7.139,6.895m1.248-10.752a2.507,2.507,0,0,0-.329.017s.169.051.444.163a6.6,6.6,0,0,1,1.068.545,3.105,3.105,0,0,1,1.056,1.108c.061.116.107.253.159.38.033.133.055.272.1.408l.027.433-.033.449a4.383,4.383,0,0,1-.163.919,5.358,5.358,0,0,1-.305.844,4.22,4.22,0,0,1-.419.723,3.591,3.591,0,0,1-.505.556,4.279,4.279,0,0,1-.524.395c-.175.085-.329.187-.464.239-.277.112-.437.18-.437.18h.163c.079,0,.184,0,.315,0a3.478,3.478,0,0,0,.561-.093,2.95,2.95,0,0,0,.687-.283,3.564,3.564,0,0,0,1.341-1.331,4.483,4.483,0,0,0,.44-.971,4.9,4.9,0,0,0,.225-1.073c0-.191.025-.377.025-.567l-.064-.573a5.242,5.242,0,0,0-.164-.549,4.263,4.263,0,0,0-.264-.5,3.092,3.092,0,0,0-1.521-1.167,3.965,3.965,0,0,0-1.267-.251l-.148,0m-.561,2.857a1.259,1.259,0,0,0-1.16,1.337,1.259,1.259,0,0,0,1.16,1.337,1.258,1.258,0,0,0,1.155-1.337,1.258,1.258,0,0,0-1.155-1.337" fill="#f9a880"/>
          <path id="path162" d="M296.309-299.569h-.163s.16-.068.437-.18c.135-.052.289-.153.464-.239a4.274,4.274,0,0,0,.524-.395,3.593,3.593,0,0,0,.505-.556,4.221,4.221,0,0,0,.419-.723,5.358,5.358,0,0,0,.305-.844,4.383,4.383,0,0,0,.163-.919l.033-.449-.027-.433c-.043-.136-.064-.275-.1-.408-.052-.127-.1-.264-.159-.38a3.1,3.1,0,0,0-1.056-1.108,6.6,6.6,0,0,0-1.068-.545c-.275-.112-.444-.163-.444-.163a2.506,2.506,0,0,1,.329-.017l.148,0a3.965,3.965,0,0,1,1.267.251,3.091,3.091,0,0,1,1.521,1.167,4.261,4.261,0,0,1,.264.5,5.233,5.233,0,0,1,.164.549l.064.573c0,.189-.021.376-.025.567a4.9,4.9,0,0,1-.225,1.073,4.484,4.484,0,0,1-.44.971,3.563,3.563,0,0,1-1.341,1.331,2.951,2.951,0,0,1-.687.283,3.475,3.475,0,0,1-.561.093c-.131,0-.236,0-.315,0" fill="#ce8b69"/>
          <path id="path164" d="M295.914-301.4a1.259,1.259,0,0,1-1.16-1.337,1.259,1.259,0,0,1,1.16-1.337,1.258,1.258,0,0,1,1.155,1.337,1.258,1.258,0,0,1-1.155,1.337" fill="#ce8b69"/>
          <path id="path166" d="M232.938-296.177a7.022,7.022,0,0,1-7.139-6.895,6.986,6.986,0,0,1,6.2-6.839q.092,3.014.437,5.855a1.029,1.029,0,0,0-.181-.016,1.26,1.26,0,0,0-1.157,1.337,1.26,1.26,0,0,0,1.157,1.337,1.037,1.037,0,0,0,.539-.153,51.971,51.971,0,0,0,1.156,5.305,7.621,7.621,0,0,1-1.009.068m-1.252-10.752-.149,0a3.99,3.99,0,0,0-1.264.251,3.1,3.1,0,0,0-1.516,1.167,4.271,4.271,0,0,0-.265.5c-.065.177-.116.361-.168.549l-.056.573c0,.189.012.376.02.567a5.319,5.319,0,0,0,.224,1.073,4.684,4.684,0,0,0,.44.971,3.592,3.592,0,0,0,1.341,1.331,3.006,3.006,0,0,0,.688.283,3.592,3.592,0,0,0,.556.093c.133,0,.24,0,.32,0h.163s-.159-.068-.439-.18c-.135-.052-.285-.153-.467-.239a4.472,4.472,0,0,1-.521-.395,3.516,3.516,0,0,1-.5-.556,4.052,4.052,0,0,1-.419-.723,5.8,5.8,0,0,1-.311-.844,4.134,4.134,0,0,1-.153-.919l-.035-.449.028-.433c.036-.136.063-.275.092-.408.06-.127.093-.264.157-.38a3.1,3.1,0,0,1,1.06-1.108,6.335,6.335,0,0,1,1.067-.545c.273-.112.443-.163.443-.163a2.562,2.562,0,0,0-.333-.017" fill="#f9a880"/>
          <path id="path168" d="M231.857-299.569c-.08,0-.187,0-.32,0a3.6,3.6,0,0,1-.556-.093,3.006,3.006,0,0,1-.688-.283,3.592,3.592,0,0,1-1.341-1.331,4.683,4.683,0,0,1-.44-.971,5.319,5.319,0,0,1-.224-1.073c-.008-.191-.02-.377-.02-.567l.056-.573c.052-.188.1-.372.168-.549a4.267,4.267,0,0,1,.265-.5,3.1,3.1,0,0,1,1.516-1.167,3.991,3.991,0,0,1,1.264-.251l.149,0a2.567,2.567,0,0,1,.333.017s-.169.051-.443.163a6.338,6.338,0,0,0-1.067.545,3.1,3.1,0,0,0-1.06,1.108c-.064.116-.1.253-.157.38-.029.133-.056.272-.092.408l-.028.433.035.449a4.134,4.134,0,0,0,.153.919,5.8,5.8,0,0,0,.311.844,4.05,4.05,0,0,0,.419.723,3.514,3.514,0,0,0,.5.556,4.475,4.475,0,0,0,.521.395c.181.085.332.187.467.239.28.112.439.18.439.18h-.163" fill="#ce8b69"/>
          <path id="path170" d="M232.253-301.4a1.26,1.26,0,0,1-1.157-1.337,1.26,1.26,0,0,1,1.157-1.337,1.029,1.029,0,0,1,.181.016q.154,1.272.357,2.505a1.037,1.037,0,0,1-.539.153" fill="#ce8b69"/>
          <path id="path172" d="M263.593-272.283a33.884,33.884,0,0,1-7.744-.857h0c-11.181-2.617-18.589-11.072-21.9-23.1a51.975,51.975,0,0,1-1.156-5.305q-.2-1.234-.357-2.505-.344-2.836-.437-5.855c0-.055,0-.108-.005-.163l.248,4.141,2.795.788c-1.935-24.3,7.733-33.848,11.932-36.809l-.011.012s9.285,16.017,38.8,16.017c.761,0,1.533-.011,2.323-.032,0,0-3.939-4.653-3.755-8.148,4.292,5.219,8.993,15.081,7.589,32.707l2.572-.725a52.618,52.618,0,0,1-1.2,5.689c-3.285,12.133-10.711,20.66-21.952,23.292h0a33.909,33.909,0,0,1-7.748.857m31.309-33.1.307-5.145c0,.187-.009.371-.015.557q-.07,2.344-.292,4.588" fill="#f9a880"/>
          <path id="path174" d="M267.223-251.978q-1.8-.08-3.631-.081c-1.209,0-2.417.027-3.615.081l-11.372-11.359h0c3.531-.749,6.337-1.172,7.245-1.3l.311-.043h14.867l.315.044c.916.131,3.747.557,7.3,1.313h-.008l-11.409,11.347" fill="#f9a880"/>
          <path id="path176" d="M302.034-242.054a78.3,78.3,0,0,0-34.811-9.924l11.409-11.347h.008c.367.039,12.145,1.336,19.1,7.352h0a28.366,28.366,0,0,1,8.451,11.416q-2.036,1.314-4.157,2.5m-76.88,0q-2.122-1.188-4.156-2.5a28.365,28.365,0,0,1,8.452-11.417h0c7-6.057,18.941-7.341,19.153-7.364h0l11.372,11.359a78.288,78.288,0,0,0-34.824,9.923" fill="#2c333f"/>
          <path id="path178" d="M235.034-305.143l-2.795-.788-.248-4.141-.748-12.513a.04.04,0,0,0,0,.009s.348-2.453.505-6.115c.093-1.832.141-3.967.133-6.251-.017-1.141.005-2.324-.044-3.52-.02-.6-.04-1.2-.06-1.808l-.016-.455v-.012l.005-.1.012-.228.049-.911a10.421,10.421,0,0,1,.161-1.684,10.16,10.16,0,0,1,.316-1.613,15.706,15.706,0,0,1,.447-1.6,11.778,11.778,0,0,1,.556-1.533c.187-.507.428-.979.653-1.451a13.3,13.3,0,0,1,.7-1.368c.233-.447.493-.86.749-1.263.239-.413.489-.8.747-1.164a37.892,37.892,0,0,1,3.768-4.712l-.032.015c.6-.423,1.235-.832,1.919-1.22a.014.014,0,0,1,0,.005h0a34.515,34.515,0,0,0,6.915,16.217,6.834,6.834,0,0,0-1.763,1.387c-4.2,2.961-13.867,12.509-11.932,36.809" fill="#362017"/>
          <path id="path180" d="M231.246-322.577a.042.042,0,0,1,0-.009c-.04-.169-.591-2.535-1.069-6.032-.263-1.816-.509-3.936-.713-6.211-.091-1.139-.221-2.313-.284-3.509q-.054-.9-.108-1.807l-.027-.453,0-.057,0-.176,0-.115.007-.228.025-.912a13.274,13.274,0,0,1,.229-1.936,12.7,12.7,0,0,1,.427-1.923c.087-.309.16-.621.257-.923l.352-.876a13.725,13.725,0,0,1,.767-1.677,11.528,11.528,0,0,1,.873-1.541,15.4,15.4,0,0,1,.961-1.385,18.058,18.058,0,0,1,2-2.312,17.854,17.854,0,0,1,1.911-1.708,17.28,17.28,0,0,1,1.595-1.148,13.362,13.362,0,0,1,1.451-.827l.032-.015a37.893,37.893,0,0,0-3.768,4.712c-.257.363-.508.751-.747,1.164-.256.4-.516.816-.749,1.263a13.308,13.308,0,0,0-.7,1.368c-.225.472-.467.944-.653,1.451a11.772,11.772,0,0,0-.556,1.533,15.718,15.718,0,0,0-.447,1.6,10.162,10.162,0,0,0-.316,1.613,10.418,10.418,0,0,0-.161,1.684l-.049.911-.012.228-.005.1v.012l.016.455c.02.605.04,1.209.06,1.808.049,1.2.027,2.379.044,3.52.008,2.284-.04,4.419-.133,6.251-.157,3.661-.505,6.115-.505,6.115" fill="#22120c"/>
          <path id="path182" d="M285.759-325.923c-29.519,0-38.8-16.017-38.8-16.017l.011-.012a11.9,11.9,0,0,1,1.869-1.12l.024-.1C261.3-327.631,284.6-327.63,284.6-327.63h0c-2.936-4.445-2.78-7.481-2.469-8.82a24.356,24.356,0,0,1,2.2,2.347c-.184,3.495,3.755,8.148,3.755,8.148-.789.021-1.561.032-2.323.032" fill="#b87c5d"/>
          <path id="path184" d="M246.966-341.952a6.833,6.833,0,0,1,1.763-1.387l.131.164-.024.1a11.9,11.9,0,0,0-1.869,1.12" fill="#2a1811"/>
          <path id="path186" d="M291.917-301.4c1.4-17.625-3.3-27.488-7.589-32.707a24.36,24.36,0,0,0-2.2-2.347,3.445,3.445,0,0,1,.26-.775,16.421,16.421,0,0,0,6.528,1.684,5.538,5.538,0,0,0,5.837-4.927,7.8,7.8,0,0,1,1.553,1.109c.541,4.029.649,9.835-.453,18.049l-.645,10.781-.307,5.145-.192,3.2-.221.063-2.572.725" fill="#362017"/>
          <path id="path188" d="M284.6-327.63s-23.3,0-35.739-15.545l-.131-.164a34.515,34.515,0,0,1-6.915-16.217,6.328,6.328,0,0,1,.44-.6,19.021,19.021,0,0,1,1.4-1.532,24.131,24.131,0,0,1,2.432-2.067,28.417,28.417,0,0,1,3.471-2.191c.675-.333,1.352-.717,2.108-1.011l1.127-.491,1.192-.436a40.155,40.155,0,0,1,5.187-1.46c.9-.241,1.861-.332,2.807-.507l.716-.116.653-.044,1.461-.075q.93-.034,1.871-.035c1.363,0,2.739.053,4.105.161a49.743,49.743,0,0,1,5.923.713,45.411,45.411,0,0,1,5.395,1.315,79.011,79.011,0,0,0,13.209,10.684h0q1.41.91,2.859,1.757c.736,1.728,4.031,10.407,2.633,24.507,0,0-1.239-5.425-4.491-8.38a7.8,7.8,0,0,0-1.553-1.109,5.538,5.538,0,0,1-5.837,4.927,16.421,16.421,0,0,1-6.528-1.684,3.444,3.444,0,0,0-.26.775c-.311,1.339-.467,4.375,2.469,8.82" fill="#362017"/>
          <path id="path190" d="M241.814-359.556h0a.015.015,0,0,0,0-.005,11.661,11.661,0,0,1,1.417-2.477,19.133,19.133,0,0,1,2.16-2.508c.44-.472.977-.892,1.512-1.384.565-.444,1.167-.916,1.823-1.36a27.056,27.056,0,0,1,4.476-2.493A32.643,32.643,0,0,1,258.6-371.7c.951-.3,1.945-.444,2.941-.675l.751-.159.84-.1c.517-.051,1.036-.083,1.556-.111q1.41-.072,2.836-.073,1.72,0,3.451.108a51.325,51.325,0,0,1,6.24.849q.766.148,1.517.333,1.628,1.854,3.369,3.6a45.424,45.424,0,0,0-5.395-1.315,49.762,49.762,0,0,0-5.923-.713c-1.367-.108-2.743-.161-4.105-.161q-.94,0-1.871.035l-1.461.075-.653.044-.716.116c-.945.175-1.9.265-2.807.507a40.159,40.159,0,0,0-5.187,1.46l-1.192.436-1.127.491c-.756.293-1.433.677-2.108,1.011a28.416,28.416,0,0,0-3.471,2.191,24.127,24.127,0,0,0-2.432,2.067,19.015,19.015,0,0,0-1.4,1.532,6.331,6.331,0,0,0-.44.6h0" fill="#22120c"/>
        </g>
        <path id="path192" d="M181.468-213.835a28.374,28.374,0,0,0-8.455-11.416,27.15,27.15,0,0,0-8.259-4.353v0a102.1,102.1,0,0,0-18.141-4.309V-234c12.839-1.815,21.657-20.017,25.577-30.032a2.378,2.378,0,0,0,.7-1.687c0-.044,0-.087,0-.129a6.921,6.921,0,0,0,4.755-6.5,6.727,6.727,0,0,0-1.557-4.3,3.509,3.509,0,0,1,.339.445c8.845-31.412-9.124-47.661-9.124-47.661s-6.8-10.565-22.168-10.565a42.016,42.016,0,0,0-14,2.6s-6.2,3.129-8.4,8.451c-6.985,2.624-18.657,10.677-21.647,35.343,0,0-3.563,37.287,7.3,60.405a18.685,18.685,0,0,0-3.647,2.377,28.386,28.386,0,0,0-8.456,11.415,78.677,78.677,0,0,1-36.142-66.236,78.745,78.745,0,0,1,78.738-78.745,79.773,79.773,0,0,1,8.437.447c.947.645,1.9,1.268,2.88,1.873h0a78.266,78.266,0,0,0,32.984,11.315,79.073,79.073,0,0,1,7.151,5.5,78.509,78.509,0,0,0-5.468,28.889,78.557,78.557,0,0,0,27.292,59.613,79.018,79.018,0,0,1-30.677,37.347" transform="translate(676.997 823.863)" fill="#6ea0ef"/>
        <path id="path194" d="M150.186-356.5c-.976-.605-1.933-1.228-2.88-1.873q1.732.186,3.439.444-.288.694-.559,1.429" transform="translate(676.997 823.863)" fill="#7c4149"/>
        <path id="path196" d="M183.17-345.183A78.266,78.266,0,0,1,150.186-356.5q.27-.736.559-1.429a78.309,78.309,0,0,1,32.425,12.744" transform="translate(676.997 823.863)" fill="#173645"/>
        <path id="path198" d="M212.145-251.182A78.557,78.557,0,0,1,184.853-310.8a78.509,78.509,0,0,1,5.468-28.889,78.562,78.562,0,0,1,27.293,59.612,78.517,78.517,0,0,1-5.469,28.891" transform="translate(676.997 823.863)" fill="#0008b2"/>
        <path id="path200" d="M131.118-233.915l.007,0v0h-.007m15.494-8.455v-.047l.029-.008c-.009.019-.02.037-.029.055m-15.525-.056a16.733,16.733,0,0,1-1.951-.529q.956.294,1.951.529m40.475-36.744a7.555,7.555,0,0,0-1.064-.076h-.033c0-.081.005-.159.008-.24.356.117.72.223,1.089.316" transform="translate(676.997 823.863)" fill="#6bc5ba"/>
        <g id="g204" transform="translate(676.997 823.863)" clip-path="url(#clip-path-4)">
          <path id="path210" d="M146.613-234v-8.371c.009-.017.02-.036.029-.055,10.94-2.571,18.26-10.731,21.664-22.363a2.378,2.378,0,0,0,2.193,1.456,2.385,2.385,0,0,0,1.691-.7c-3.92,10.015-12.739,28.217-25.577,30.032" fill="#362017"/>
          <path id="path212" d="M131.126-233.917v-.915a8.082,8.082,0,0,1,.883-1.08,10.56,10.56,0,0,1,6.771-3.051c2.213-.168,5.991.309,7.171-2a2.583,2.583,0,0,1,.663-.847v7.891l-.3-.043H131.38l-.019,0h-.023l-.213.029" fill="#f9a880"/>
          <path id="path214" d="M131.126-234.831v-7.585a33.959,33.959,0,0,0,7.743.856,33.951,33.951,0,0,0,7.744-.856v.609a2.583,2.583,0,0,0-.663.847c-1.18,2.308-4.957,1.831-7.171,2a10.56,10.56,0,0,0-6.771,3.051,8.081,8.081,0,0,0-.883,1.08" fill="#b87c5d"/>
          <path id="path216" d="M172.886-265.847A2.388,2.388,0,0,0,170.5-268.1a2.363,2.363,0,0,0-1.461.5,60.437,60.437,0,0,0,1.428-11.643h.033a7.555,7.555,0,0,1,1.064.076l.1.025a8.368,8.368,0,0,1,4.417,2.495,6.727,6.727,0,0,1,1.557,4.3,6.921,6.921,0,0,1-4.755,6.5m-1.124-10.359a2.659,2.659,0,0,0-.339.017s.167.051.443.161a6.25,6.25,0,0,1,1.063.544,3.159,3.159,0,0,1,1.063,1.109c.065.12.1.253.155.38.033.131.059.272.1.408l.032.435-.035.452a4.007,4.007,0,0,1-.163.915,4.971,4.971,0,0,1-.305.847,4.634,4.634,0,0,1-.419.72,3.893,3.893,0,0,1-.5.557,5.035,5.035,0,0,1-.525.392c-.177.085-.328.187-.465.24l-.436.18s.075,0,.217,0l.264,0a4.478,4.478,0,0,0,.557-.093,2.952,2.952,0,0,0,.688-.285,3.616,3.616,0,0,0,1.341-1.329,4.582,4.582,0,0,0,.437-.972,4.759,4.759,0,0,0,.221-1.072,5.39,5.39,0,0,0,.025-.565l-.057-.575a5.381,5.381,0,0,0-.171-.551,5.216,5.216,0,0,0-.257-.495,3.138,3.138,0,0,0-1.525-1.168,3.988,3.988,0,0,0-1.26-.251h-.143m-.576,2.86a1.254,1.254,0,0,0-1.155,1.335,1.255,1.255,0,0,0,1.155,1.337,1.255,1.255,0,0,0,1.157-1.337,1.254,1.254,0,0,0-1.157-1.335" fill="#f9a880"/>
          <path id="path218" d="M171.641-268.846c-.143,0-.217,0-.217,0l.436-.18c.137-.053.288-.155.465-.24a5.035,5.035,0,0,0,.525-.392,3.89,3.89,0,0,0,.5-.557,4.632,4.632,0,0,0,.419-.72,4.973,4.973,0,0,0,.305-.847,4.009,4.009,0,0,0,.163-.915l.035-.452-.032-.435c-.037-.136-.063-.277-.1-.408-.056-.127-.089-.26-.155-.38a3.159,3.159,0,0,0-1.063-1.109,6.25,6.25,0,0,0-1.063-.544c-.276-.111-.443-.161-.443-.161a2.659,2.659,0,0,1,.339-.017h.143a3.987,3.987,0,0,1,1.26.251,3.138,3.138,0,0,1,1.525,1.168,5.219,5.219,0,0,1,.257.495,5.387,5.387,0,0,1,.171.551l.057.575a5.393,5.393,0,0,1-.025.565,4.759,4.759,0,0,1-.221,1.072,4.582,4.582,0,0,1-.437.972,3.616,3.616,0,0,1-1.341,1.329,2.955,2.955,0,0,1-.688.285,4.473,4.473,0,0,1-.557.093l-.264,0" fill="#ce8b69"/>
          <path id="path220" d="M171.186-270.674a1.255,1.255,0,0,1-1.155-1.337,1.254,1.254,0,0,1,1.155-1.335,1.254,1.254,0,0,1,1.157,1.335,1.255,1.255,0,0,1-1.157,1.337" fill="#ce8b69"/>
          <path id="path222" d="M138.869-241.561a33.957,33.957,0,0,1-7.743-.856v0l-.037-.007q-1-.234-1.951-.529c-5.307-1.741-19.393-8.508-19.167-31.271,0,0,.131-30.211,14.988-37.785q.1.134.214.268a97.459,97.459,0,0,0,31,23.153,15.392,15.392,0,0,1-.347-6.416s4.789,12.265,14.647,15.52c0,.081-.005.159-.008.24a60.438,60.438,0,0,1-1.428,11.643,2.384,2.384,0,0,0-.92,1.885,2.373,2.373,0,0,0,.188.931c-3.4,11.632-10.724,19.792-21.664,22.363l-.029.008h0a33.952,33.952,0,0,1-7.744.856" fill="#f9a880"/>
          <path id="path224" d="M114.922-205.038a78.428,78.428,0,0,1-18.649-8.8h0a28.385,28.385,0,0,1,8.456-11.415,18.686,18.686,0,0,1,3.647-2.377,36.832,36.832,0,0,0,7.662,11.085,69.367,69.367,0,0,1-1.116,11.505m48.8-.293c-3.067-14.135.953-24.08,1.033-24.273a27.149,27.149,0,0,1,8.259,4.353,28.374,28.374,0,0,1,8.455,11.416h0a78.4,78.4,0,0,1-17.747,8.5m-25.16-14.776-7.126-13.852H146.3l-7.744,13.852m-7.223-13.839h0m.012,0s0,0,0,0,0,0,0,0m.007,0h0m.023,0h0m.017,0h0m.007,0h0m.021,0h0m0,0h0m0,0h0m14.881,0h0m-14.879,0h0m0,0h0m14.876,0h0" fill="#f9a880"/>
          <path id="path226" d="M138.869-201.33a78.7,78.7,0,0,1-23.947-3.708,69.366,69.366,0,0,0,1.116-11.505,24.248,24.248,0,0,0,8.182,5.221s-1.93-18.54,6.9-22.593h.007l.213-.029h.012s0,0,0,0h.009l.019,0h.054l7.126,13.852,7.744-13.852h.005l.3.043a102.1,102.1,0,0,1,18.141,4.309v0c-.08.193-4.1,10.139-1.033,24.273a78.711,78.711,0,0,1-24.852,4" fill="#ed3947"/>
          <path id="path228" d="M176.422-276.2a3.511,3.511,0,0,0-.339-.445,8.368,8.368,0,0,0-4.417-2.495l-.1-.025c-.369-.093-.733-.2-1.089-.316-9.857-3.255-14.647-15.52-14.647-15.52a15.392,15.392,0,0,0,.347,6.416,97.459,97.459,0,0,1-31-23.153q-.109-.134-.214-.268a15.108,15.108,0,0,1,1.611-.708l1.514-11.92a18.686,18.686,0,0,0-5.363,1.263c2.206-5.321,8.4-8.451,8.4-8.451a42.016,42.016,0,0,1,14-2.6c15.364,0,22.168,10.565,22.168,10.565s17.969,16.249,9.124,47.661" fill="#362017"/>
          <path id="path230" d="M124.22-211.322a24.248,24.248,0,0,1-8.182-5.221,36.832,36.832,0,0,1-7.662-11.085c-10.865-23.119-7.3-60.405-7.3-60.405,2.99-24.665,14.662-32.719,21.647-35.343a18.688,18.688,0,0,1,5.363-1.263l-1.514,11.92a15.12,15.12,0,0,0-1.611.708c-14.857,7.575-14.988,37.785-14.988,37.785-.226,22.763,13.859,29.529,19.167,31.271a16.727,16.727,0,0,0,1.951.529l.037.007v8.5h0l-.007,0c-8.828,4.053-6.9,22.593-6.9,22.593" fill="#362017"/>
          <path id="path232" d="M170.5-263.331a2.378,2.378,0,0,1-2.193-1.456,2.373,2.373,0,0,1-.188-.931,2.384,2.384,0,0,1,.92-1.885,2.363,2.363,0,0,1,1.461-.5,2.388,2.388,0,0,1,2.387,2.257c0,.043,0,.085,0,.129a2.378,2.378,0,0,1-.7,1.687,2.385,2.385,0,0,1-1.691.7" fill="#fff"/>
        </g>
        <path id="path234" d="M380.5-357.242a28.391,28.391,0,0,0-8.452-11.416,27.158,27.158,0,0,0-8.263-4.355h0l-4.692-1.7s0,.071-.007.205a112.442,112.442,0,0,0-13.44-2.816v-7.891h0v-.611h0v8.5c2.455-.216,4.863-.3,7.109-.3a93.486,93.486,0,0,1,12.865.864c12.547-26.076,13.339-46.864,13.211-53.567.272-5.739-.612-14.693-4.195-28.643,0,0-7.307-20.117-32.173-20.117a55.561,55.561,0,0,0-12.307,1.471s-13.12,2.395-13.121,13.193c-6.645,4.213-14.545,13.319-16.927,32.983,0,0-4.228,29.513,10.076,54.68a93.366,93.366,0,0,1,12.861-.864c2.247,0,4.655.083,7.111.3v0c-1.147.164-5.308.793-10.131,1.956.033-.015.371-.16.228-.16a54.105,54.105,0,0,0-5.868,1.712v0c-.835.264-1.664.544-2.475.839a78.375,78.375,0,0,0-45.052-16.5q-1.13-2.358-2.108-4.8a78.535,78.535,0,0,0,5.595-29.208,78.523,78.523,0,0,0-5.595-29.207A78.774,78.774,0,0,1,337.9-502.223a78.746,78.746,0,0,1,78.744,78.742A78.684,78.684,0,0,1,380.5-357.242" transform="translate(676.997 823.863)" fill="#f46f3f"/>
        <path id="path236" d="M264.753-394.272a78.509,78.509,0,0,1-5.6-29.208,78.5,78.5,0,0,1,5.6-29.207,78.523,78.523,0,0,1,5.595,29.207,78.536,78.536,0,0,1-5.595,29.208" transform="translate(676.997 823.863)" fill="#eb292b"/>
        <path id="path238" d="M296.339-359.519a20.363,20.363,0,0,0-1.132-1.745,20.907,20.907,0,0,0-2.849-3.256,23.921,23.921,0,0,0-4.1-3.119,30.013,30.013,0,0,0-5.165-2.52,39.757,39.757,0,0,0-4.367-1.368,78.9,78.9,0,0,1-11.867-17.943,78.375,78.375,0,0,1,45.052,16.5,26.965,26.965,0,0,0-8.155,4.316,29.092,29.092,0,0,0-7.419,9.139" transform="translate(676.997 823.863)" fill="#0008b2"/>
        <path id="path240" d="M295.306-357.242A79.014,79.014,0,0,1,282.1-367.926l.191.063a36.676,36.676,0,0,1,4.963,2.023,28.49,28.49,0,0,1,4.083,2.532c.593.453,1.155.9,1.655,1.368a17.748,17.748,0,0,1,1.4,1.349c.605.647,1.14,1.256,1.584,1.819q-.35.744-.669,1.531" transform="translate(676.997 823.863)" fill="#371410"/>
        <path id="path242" d="M295.975-358.772c-.444-.563-.979-1.172-1.584-1.819a17.748,17.748,0,0,0-1.4-1.349c-.5-.465-1.061-.915-1.655-1.368a28.487,28.487,0,0,0-4.083-2.532,36.676,36.676,0,0,0-4.963-2.023l-.191-.063q-1.74-1.748-3.369-3.6a39.762,39.762,0,0,1,4.367,1.368,30.013,30.013,0,0,1,5.165,2.52,23.923,23.923,0,0,1,4.1,3.119,20.908,20.908,0,0,1,2.849,3.256,20.381,20.381,0,0,1,1.132,1.745q-.186.368-.364.747" transform="translate(676.997 823.863)" fill="#220b07"/>
        <path id="path244" d="M330.138-385.83a16.741,16.741,0,0,1-2.016-.549q.988.308,2.016.549m15.541,0q1.008-.236,1.972-.536a16.668,16.668,0,0,1-1.972.536" transform="translate(676.997 823.863)" fill="#f46f3f"/>
        <g id="g248" transform="translate(676.997 823.863)" clip-path="url(#clip-path-5)">
          <path id="path254" d="M330.158-377.323v-.916a7.8,7.8,0,0,1,.887-1.079,10.524,10.524,0,0,1,6.767-3.052c2.215-.167,5.993.309,7.168-2a2.661,2.661,0,0,1,.668-.845v7.891l-.311-.044H330.471l-.313.044" fill="#f9a880"/>
          <path id="path256" d="M330.158-378.239v-7.587a33.909,33.909,0,0,0,7.748.857,33.865,33.865,0,0,0,7.741-.856v.611a2.659,2.659,0,0,0-.668.845c-1.175,2.308-4.953,1.832-7.168,2a10.524,10.524,0,0,0-6.767,3.052,7.8,7.8,0,0,0-.887,1.079" fill="#b87c5d"/>
          <path id="path258" d="M337.906-384.968a33.91,33.91,0,0,1-7.748-.857h0l-.02,0q-1.03-.242-2.016-.549c-5.343-1.765-19.341-8.56-19.116-31.255,0,0,.119-27.273,12.869-36.489A50.014,50.014,0,0,0,359-437.759q1.986,0,4.071-.151l1.995,5.08a84.7,84.7,0,0,1,1.737,15.2c.221,22.739-13.832,29.516-19.151,31.265q-.966.3-1.972.536l-.032.007h0a33.86,33.86,0,0,1-7.741.856" fill="#f9a880"/>
          <path id="path260" d="M314.69-370.708q-1.362-1.162-2.777-2.265c.811-.295,1.64-.575,2.475-.839q.176,1.594.3,3.1" fill="#f9a880"/>
          <path id="path262" d="M313.958-348.443a78.36,78.36,0,0,1-15.793-7.041c-.091-.211-.141-.319-.141-.319h0l-.268-.692a15.3,15.3,0,0,0-.841-1.936c-.163-.34-.355-.7-.575-1.088a29.091,29.091,0,0,1,7.419-9.139,26.964,26.964,0,0,1,8.155-4.316q1.414,1.1,2.777,2.265a82.879,82.879,0,0,1-.732,22.265" fill="#4046c5"/>
          <path id="path264" d="M298.165-355.484q-1.452-.85-2.859-1.757h0q.32-.788.669-1.531c.171.216.327.427.469.628.544.709.917,1.308,1.176,1.716l.4.625h0s.051.108.141.319" fill="#361912"/>
          <path id="path266" d="M298.023-355.8l-.4-.625c-.259-.408-.632-1.007-1.176-1.716-.143-.2-.3-.412-.469-.628q.178-.378.364-.747c.22.384.412.748.575,1.088a15.3,15.3,0,0,1,.841,1.936l.268.692h0" fill="#220e09"/>
          <path id="path268" d="M362.412-350.442c-2.412-13.257,1.315-22.429,1.372-22.571a27.158,27.158,0,0,1,8.263,4.355,28.39,28.39,0,0,1,8.452,11.416h0q-.406.262-.813.517a78.168,78.168,0,0,0-17.273,6.283" fill="#f9a880"/>
          <path id="path270" d="M362.751-348.738c-.124-.576-.237-1.143-.339-1.7a78.17,78.17,0,0,1,17.273-6.283,78.438,78.438,0,0,1-16.935,7.987" fill="#4f8b6b"/>
          <path id="path272" d="M339.643-352.748c-.661,0-1.344-.027-2.052-.081,0,0-.3.029-.824.029a16.9,16.9,0,0,1-7.841-1.964,79.093,79.093,0,0,0-7.547-9.521,32.621,32.621,0,0,1-1.355-11.081h0c4.823-1.163,8.984-1.792,10.131-1.956l.313-.044h14.865l.311.044a112.442,112.442,0,0,1,13.44,2.816c-.1,2.228-1.485,21.757-19.444,21.759" fill="#f9a880"/>
          <path id="path274" d="M328.926-354.764a15.921,15.921,0,0,1-7.547-9.521,79.1,79.1,0,0,1,7.547,9.521" fill="#4046c5"/>
          <path id="path276" d="M337.9-344.736c-1.093,0-2.185-.023-3.268-.067a78.79,78.79,0,0,0-5.708-9.961,16.9,16.9,0,0,0,7.841,1.964c.524,0,.824-.029.824-.029.708.055,1.391.081,2.052.081,17.959,0,19.344-19.531,19.444-21.759.005-.135.007-.205.007-.205l4.692,1.7h0c-.057.141-3.784,9.313-1.372,22.571q-3.3,1.662-6.412,3.615a78.984,78.984,0,0,1-18.1,2.091m-16.523-19.549a79.451,79.451,0,0,0-6.689-6.423q-.126-1.508-.3-3.1v0a54.1,54.1,0,0,1,5.868-1.712c.143,0-.195.145-.228.16h0a32.623,32.623,0,0,0,1.355,11.081" fill="#3bbec5"/>
          <path id="path278" d="M356-346.827q3.112-1.952,6.412-3.615c.1.561.215,1.128.339,1.7q-3.312,1.1-6.751,1.911" fill="#10ae94"/>
          <path id="path280" d="M334.634-344.8a78.526,78.526,0,0,1-20.676-3.64,82.878,82.878,0,0,0,.732-22.265,79.456,79.456,0,0,1,6.689,6.423,15.921,15.921,0,0,0,7.547,9.521,78.794,78.794,0,0,1,5.708,9.961" fill="#0008b2"/>
          <path id="path282" d="M310.186-376.76c-14.3-25.167-10.076-54.68-10.076-54.68,2.381-19.664,10.281-28.769,16.927-32.983a17.064,17.064,0,0,0,.975,5.453,37.37,37.37,0,0,0,3.864,4.847c-12.751,9.216-12.869,36.489-12.869,36.489-.225,22.695,13.773,29.489,19.116,31.255a16.762,16.762,0,0,0,2.016.549l.02,0h0v8.5h0c-2.456-.216-4.864-.3-7.111-.3a93.362,93.362,0,0,0-12.861.864" fill="#6d1a0b"/>
          <path id="path284" d="M365.622-376.76a93.49,93.49,0,0,0-12.865-.864c-2.247,0-4.655.083-7.109.3v-8.5h0l.032-.007a16.666,16.666,0,0,0,1.972-.536c5.319-1.749,19.372-8.527,19.151-31.265a84.7,84.7,0,0,0-1.737-15.2l4,10.176L375-420.191s3.4-.933,3.836-10.136c.128,6.7-.664,27.491-13.211,53.567" fill="#6d1a0b"/>
          <path id="path286" d="M375-420.191l-5.936-2.463-4-10.176-1.995-5.08q-2.086.152-4.071.151a50.014,50.014,0,0,1-37.124-16.364,37.37,37.37,0,0,1-3.864-4.847,17.065,17.065,0,0,1-.975-5.453c0-10.8,13.121-13.193,13.121-13.193a55.561,55.561,0,0,1,12.307-1.471c24.867,0,32.173,20.117,32.173,20.117,3.583,13.949,4.467,22.9,4.195,28.643-.433,9.2-3.836,10.136-3.836,10.136" fill="#6d1a0b"/>
        </g>
        <path id="path288" d="M306.19-107.08a26.952,26.952,0,0,0-3.823-6.66c2.6-37.806,2.1-69.606,2.1-69.606h0a103.223,103.223,0,0,0-2.1-20.644s-4.864-22.9-38.123-22.9q-2.2,0-4.573.137s-31.507,0-33.788,43.407h.2c-.1.676-.192,1.367-.276,2.069,0,0-.847,30.779-.847,67.177a13.208,13.208,0,0,1,3.293-3.319A27.519,27.519,0,0,0,221-107.08a78.677,78.677,0,0,1-36.147-66.236,78.72,78.72,0,0,1,40.3-68.74,78.375,78.375,0,0,0,38.439,10.005,78.4,78.4,0,0,0,38.441-10,78.716,78.716,0,0,1,40.3,68.739A78.679,78.679,0,0,1,306.19-107.08m-3.851-6.694c-.119-.151-.24-.3-.363-.451.195.23.313.384.363.451M279.765-125.6c-4.076-.912-7.42-1.416-8.427-1.56v-7.891h0v-.608h0v8.5a84.2,84.2,0,0,1,8.427,1.56m-23.919-1.56h0m15.6-8.524c.585-.14,1.157-.295,1.72-.465a16.919,16.919,0,0,1-1.72.465m-15.721,0a16.945,16.945,0,0,1-1.679-.453c.549.167,1.111.317,1.679.453" transform="translate(676.997 823.863)" fill="#ed3947"/>
        <path id="path290" d="M263.593-248.367l-3.615-3.611c1.2-.055,2.405-.081,3.615-.081s2.428.028,3.631.081l-3.631,3.611" transform="translate(676.997 823.863)" fill="rgba(0,8,178,0.75)"/>
        <path id="path292" d="M263.593-232.05a78.375,78.375,0,0,1-38.439-10.005,78.288,78.288,0,0,1,34.824-9.923l3.615,3.611,3.631-3.611a78.3,78.3,0,0,1,34.811,9.924,78.4,78.4,0,0,1-38.441,10" transform="translate(676.997 823.863)" fill="#0008b2"/>
        <g id="g296" transform="translate(676.997 823.863)" clip-path="url(#clip-path-6)">
          <path id="path302" d="M271.338-127.161l-.312-.044H256.162l-.309.044h0v-.915a7.763,7.763,0,0,1,.884-1.079,10.512,10.512,0,0,1,6.771-3.052c2.209-.167,5.988.308,7.164-2a2.65,2.65,0,0,1,.667-.845v7.891" fill="#f9a880"/>
          <path id="path304" d="M255.853-128.076v-7.584a33.85,33.85,0,0,0,7.74.856,33.972,33.972,0,0,0,7.745-.856v.608a2.65,2.65,0,0,0-.667.845c-1.176,2.308-4.955,1.833-7.164,2a10.512,10.512,0,0,0-6.771,3.052,7.764,7.764,0,0,0-.884,1.079" fill="#b87c5d"/>
          <path id="path306" d="M263.593-134.8a33.85,33.85,0,0,1-7.74-.856v0l-.127-.025c-.568-.136-1.129-.287-1.679-.453-5.159-1.643-19.581-8.3-19.353-31.328a84.666,84.666,0,0,1,1.885-15.876h23.505l3.2-16.051v16.051h15.891l2.633-11.3,2.74,11.3h6.063a84.521,84.521,0,0,1,1.883,15.876c.227,22.991-14.145,29.664-19.325,31.32-.563.171-1.135.325-1.72.465l-.109.021v0h0a33.972,33.972,0,0,1-7.745.856" fill="#f9a880"/>
          <path id="path308" d="M263.593-107.8l-16.4-17.674c2.588-.623,5.461-1.194,8.651-1.687h.007l.309-.044h14.864l.312.044c1.007.144,4.351.648,8.427,1.56q.4.095.784.194L263.593-107.8" fill="#f9a880"/>
          <path id="path310" d="M263.593-94.574A78.37,78.37,0,0,1,221-107.08a27.519,27.519,0,0,1,7.252-10.339c3.1-2.395,8.835-5.62,18.947-8.056l16.4,17.675,16.956-17.608c14.033,3.533,19.947,9.455,21.428,11.182.123.151.244.3.363.451l.027.037h0a26.849,26.849,0,0,1,3.824,6.657,78.372,78.372,0,0,1-42.6,12.506" fill="#811520"/>
          <path id="path312" d="M224.955-114.1c0-36.4.847-67.177.847-67.177.084-.7.177-1.393.276-2.069h10.5a84.666,84.666,0,0,0-1.885,15.876c-.228,23.028,14.195,29.685,19.353,31.328a16.95,16.95,0,0,0,1.679.453l.127.025v8.5h-.007c-3.189.493-6.063,1.064-8.651,1.687-10.112,2.436-15.844,5.661-18.947,8.056h0a13.207,13.207,0,0,0-3.293,3.319" fill="#362017"/>
          <path id="path314" d="M302.366-113.737l-.027-.037h0c-.049-.067-.168-.221-.363-.451h0c-1.481-1.728-7.395-7.649-21.428-11.182q-.388-.1-.784-.194a84.2,84.2,0,0,0-8.427-1.56v-8.5l.109-.021a16.923,16.923,0,0,0,1.72-.465c5.18-1.656,19.552-8.329,19.325-31.32a84.518,84.518,0,0,0-1.883-15.876h13.859s.5,31.8-2.1,69.609h0" fill="#362017"/>
          <path id="path316" d="M304.469-183.346h0m0,0H284.547l-2.74-11.3-2.633,11.3H263.283V-199.4l-3.2,16.051h-34.2c2.281-43.407,33.788-43.407,33.788-43.407q2.372-.14,4.573-.137c33.259,0,38.123,22.9,38.123,22.9a103.224,103.224,0,0,1,2.1,20.644h0" fill="#362017"/>
        </g>
        <path id="path318" d="M253.219-513.108a10.886,10.886,0,0,1-10.887,10.887,10.887,10.887,0,0,1-10.887-10.887A10.887,10.887,0,0,1,242.333-524a10.885,10.885,0,0,1,10.887,10.888" transform="translate(676.997 823.863)" fill="#6ea0ef"/>
        <path id="path320" d="M271.045-487.9a7.452,7.452,0,0,1-7.452,7.452,7.453,7.453,0,0,1-7.452-7.452,7.452,7.452,0,0,1,7.452-7.452,7.451,7.451,0,0,1,7.452,7.452" transform="translate(676.997 823.863)" fill="#ed3947"/>
        <path id="path322" d="M299.146-510.956a13.043,13.043,0,0,1-13.047,13.04,13.038,13.038,0,0,1-13.033-13.04A13.037,13.037,0,0,1,286.1-524a13.042,13.042,0,0,1,13.047,13.04" transform="translate(676.997 823.863)" fill="#ed3947"/>
        <path id="path324" d="M435.128-382.48a9.7,9.7,0,0,1,9.7,9.7,9.7,9.7,0,0,1-9.7,9.7,9.7,9.7,0,0,1-9.7-9.7,9.7,9.7,0,0,1,9.7-9.7" transform="translate(676.997 823.863)" fill="#6ea0ef"/>
        <path id="path326" d="M457.586-398.358a6.639,6.639,0,0,1,6.636,6.64,6.636,6.636,0,0,1-6.636,6.636,6.637,6.637,0,0,1-6.637-6.636,6.639,6.639,0,0,1,6.637-6.64" transform="translate(676.997 823.863)" fill="#ed3947"/>
        <path id="path328" d="M437.044-423.386a11.618,11.618,0,0,1,11.619,11.619,11.614,11.614,0,0,1-11.619,11.611,11.613,11.613,0,0,1-11.613-11.611,11.618,11.618,0,0,1,11.613-11.619" transform="translate(676.997 823.863)" fill="#121dff"/>
        <path id="path330" d="M82.625-375.879A9.7,9.7,0,0,1,86.738-362.8a9.7,9.7,0,0,1-13.082,4.116,9.694,9.694,0,0,1-4.115-13.083,9.7,9.7,0,0,1,13.083-4.116" transform="translate(676.997 823.863)" fill="#6ea0ef"/>
        <path id="path332" d="M109.876-379.576a6.636,6.636,0,0,1,2.817,8.955,6.635,6.635,0,0,1-8.953,2.816,6.638,6.638,0,0,1-2.818-8.953,6.639,6.639,0,0,1,8.954-2.817" transform="translate(676.997 823.863)" fill="#ed3947"/>
        <path id="path334" d="M103.239-411.266a11.618,11.618,0,0,1,4.925,15.672A11.613,11.613,0,0,1,92.5-390.667a11.614,11.614,0,0,1-4.932-15.667,11.617,11.617,0,0,1,15.673-4.932" transform="translate(676.997 823.863)" fill="#121dff"/>
        <path id="path336" d="M158-151.512a9.7,9.7,0,0,1,13.193,3.749,9.7,9.7,0,0,1-3.751,13.195,9.7,9.7,0,0,1-13.192-3.752A9.693,9.693,0,0,1,158-151.512" transform="translate(676.997 823.863)" fill="#6ea0ef"/>
        <path id="path338" d="M169.884-176.314a6.635,6.635,0,0,1,9.028,2.569,6.635,6.635,0,0,1-2.565,9.027,6.637,6.637,0,0,1-9.029-2.567,6.634,6.634,0,0,1,2.567-9.029" transform="translate(676.997 823.863)" fill="#ed3947"/>
        <path id="path340" d="M139.758-188.178a11.617,11.617,0,0,1,15.8,4.492,11.619,11.619,0,0,1-4.491,15.8,11.619,11.619,0,0,1-15.8-4.489,11.614,11.614,0,0,1,4.491-15.8" transform="translate(676.997 823.863)" fill="#121dff"/>
        <path id="path342" d="M365.858-165.192A9.694,9.694,0,0,1,362.11-152a9.7,9.7,0,0,1-13.193-3.751,9.7,9.7,0,0,1,3.748-13.192,9.692,9.692,0,0,1,13.193,3.751" transform="translate(676.997 823.863)" fill="#6ea0ef"/>
        <path id="path344" d="M390.662-153.3a6.631,6.631,0,0,1-2.571,9.027,6.629,6.629,0,0,1-9.024-2.567,6.633,6.633,0,0,1,2.563-9.025,6.637,6.637,0,0,1,9.032,2.565" transform="translate(676.997 823.863)" fill="#ed3947"/>
        <path id="path346" d="M402.526-183.432a11.614,11.614,0,0,1-4.493,15.8,11.613,11.613,0,0,1-15.8-4.491,11.615,11.615,0,0,1,4.489-15.8,11.616,11.616,0,0,1,15.8,4.491" transform="translate(676.997 823.863)" fill="#121dff"/>
      </g>
    </g>
  </g>
</svg>
