<svg xmlns="http://www.w3.org/2000/svg" width="21.901" height="20.969" viewBox="0 0 21.901 20.969">
  <path id="Trazado_1" data-name="Trazado 1" d="M21.615,20.14l-8.9-8.958-.035-.033a2.56,2.56,0,0,0-3.416-.007l-.035.033L.25,20.137a.854.854,0,1,0,1.206,1.209l.678-.676v7.374a3.42,3.42,0,0,0,3.417,3.417H8.625a.854.854,0,0,0,.854-.854V23.646h2.989v6.961a.854.854,0,0,0,.854.854h2.99a3.42,3.42,0,0,0,3.417-3.417.854.854,0,0,0-1.708,0,1.71,1.71,0,0,1-1.708,1.708H14.175v-6.96a.854.854,0,0,0-.854-.854h-4.7a.854.854,0,0,0-.854.854v6.961H5.551a1.71,1.71,0,0,1-1.708-1.708V18.962L10.417,12.4a.853.853,0,0,1,1.108,0l6.5,6.538v4.834a.854.854,0,0,0,1.708,0V20.665l.675.68a.854.854,0,1,0,1.212-1.2Z" transform="translate(0.001 -10.492)"/>
</svg>
