<svg xmlns="http://www.w3.org/2000/svg" width="17.098" height="20.478" viewBox="0 0 17.098 20.478">
  <g id="Grupo_88" data-name="Grupo 88" transform="translate(-303.048 -1944.999)">
    <path id="Trazado_5" data-name="Trazado 5" d="M91.962,9.863a4.772,4.772,0,0,0,3.482-1.446A4.772,4.772,0,0,0,96.889,4.93a4.772,4.772,0,0,0-1.445-3.486,4.93,4.93,0,0,0-6.974,0,4.772,4.772,0,0,0-1.445,3.487A4.772,4.772,0,0,0,88.47,8.418a4.773,4.773,0,0,0,3.491,1.445Zm-2.638-7.57a3.732,3.732,0,0,1,5.276,0,3.565,3.565,0,0,1,1.093,2.638A3.565,3.565,0,0,1,94.6,7.569a3.732,3.732,0,0,1-5.276,0A3.564,3.564,0,0,1,88.23,4.931a3.565,3.565,0,0,1,1.094-2.638Zm0,0" transform="translate(219.502 1945)"/>
    <path id="Sustracción_2" data-name="Sustracción 2" d="M7.47,10.584H-2.394A3.631,3.631,0,0,1-5,9.635,3.4,3.4,0,0,1-6,7.063c0-.4.014-.812.042-1.209A12.009,12.009,0,0,1-5.793,4.56a10.21,10.21,0,0,1,.318-1.3,6.382,6.382,0,0,1,.533-1.213A4.6,4.6,0,0,1-4.134,1,3.554,3.554,0,0,1-2.979.267,4,4,0,0,1-1.5,0,1.5,1.5,0,0,1-.7.34c.215.139.465.3.837.538a4.756,4.756,0,0,0,1.08.475,4.274,4.274,0,0,0,1.321.213,4.265,4.265,0,0,0,1.323-.212A4.749,4.749,0,0,0,4.942.878C5.222.7,5.5.522,5.777.339A1.5,1.5,0,0,1,6.577,0,4,4,0,0,1,8.056.267,3.547,3.547,0,0,1,9.211.994a4.6,4.6,0,0,1,.809,1.049,6.454,6.454,0,0,1,.533,1.213c.047.148.089.3.133.459l-1.2.148c-.021-.076-.046-.157-.073-.241a5.164,5.164,0,0,0-.436-.986,3.367,3.367,0,0,0-.589-.77,2.368,2.368,0,0,0-.771-.479A2.748,2.748,0,0,0,6.669,1.2c-.066.036-.146.084-.237.144-.283.184-.56.363-.844.545A5.945,5.945,0,0,1,4.231,2.5a5.5,5.5,0,0,1-1.688.272A5.5,5.5,0,0,1,.854,2.5a5.92,5.92,0,0,1-1.36-.61c-.3-.188-.579-.371-.845-.545-.094-.061-.178-.11-.238-.144a2.747,2.747,0,0,0-.945.182,2.368,2.368,0,0,0-.771.479,3.367,3.367,0,0,0-.592.777,5.266,5.266,0,0,0-.435.986,9.082,9.082,0,0,0-.279,1.146,10.871,10.871,0,0,0-.15,1.165c-.025.355-.037.733-.037,1.126a2.221,2.221,0,0,0,.636,1.7,2.449,2.449,0,0,0,1.777.622H7.469a2.444,2.444,0,0,0,1.777-.622,2.221,2.221,0,0,0,.637-1.7V6.694l1.2-.147c.005.187.007.355.008.514a3.4,3.4,0,0,1-1.01,2.572,3.633,3.633,0,0,1-2.608.949Z" transform="translate(309.052 1954.89)"/>
  </g>
</svg>
